<svg xmlns="http://www.w3.org/2000/svg" viewBox="0 0 562.26 177.42"><defs><style>.cls-1,.cls-2{fill:#94c4e8;}.cls-2{fill-rule:evenodd;}</style></defs><g id="Слой_2" data-name="Слой 2"><g id="Слой_1-2" data-name="Слой 1"><path class="cls-1" d="M273.51,165.29a2.66,2.66,0,0,0-.2-1.11,1,1,0,0,0-.95-.43h-.17v-.45h7.26a2,2,0,0,1,.7.1,1.15,1.15,0,0,1,.43.28.92.92,0,0,1,.21.39,1.74,1.74,0,0,1,.06.45v1.31h-.49a1.69,1.69,0,0,0-.54-1.42,2.44,2.44,0,0,0-1.53-.42h-2.63v3.6h1.49a15,15,0,0,1,1.77.11,5,5,0,0,1,1.56.43,2.9,2.9,0,0,1,1.12.89,2.8,2.8,0,0,1,0,3,3,3,0,0,1-1.12.89,5.26,5.26,0,0,1-1.56.43,15,15,0,0,1-1.77.11h-3.64Zm3.31,2.92a3.32,3.32,0,0,0-.46,0l-.37.05-.33.08v4.3l.33.07a3.28,3.28,0,0,0,.83.08h.08a3.41,3.41,0,0,0,2.15-.54,2.68,2.68,0,0,0,0-3.52,3.41,3.41,0,0,0-2.15-.54Z"/><path class="cls-1" d="M285.63,165.29a3.76,3.76,0,0,0-.88-1.18,2,2,0,0,0-1.17-.51v-.3h1.65a2.8,2.8,0,0,1,1.64.47,3.16,3.16,0,0,1,1.06,1.21l2.28,4.33,2.92-6h1.08L290,172a2.77,2.77,0,0,1-1,1.18,3,3,0,0,1-1.67.43h-.83V173c.24,0,.49,0,.74,0a3.15,3.15,0,0,0,.69-.16,2,2,0,0,0,.59-.32,1.46,1.46,0,0,0,.44-.54l.12-.23Z"/><path class="cls-1" d="M297.1,172.73a12,12,0,0,0,1.11-3.49,24.84,24.84,0,0,0,.3-4,2.5,2.5,0,0,0-.21-1.11c-.14-.28-.45-.43-.95-.43h-.17v-.45h8.75v9.43h.58a.6.6,0,0,1,.41.16.5.5,0,0,1,.17.38v3h-.83a8.49,8.49,0,0,0-.27-1.37,2.52,2.52,0,0,0-.42-.87,1.32,1.32,0,0,0-.59-.45,2.15,2.15,0,0,0-.79-.13h-5.35a2.15,2.15,0,0,0-.79.13,1.32,1.32,0,0,0-.59.45,2.52,2.52,0,0,0-.42.87,8.49,8.49,0,0,0-.27,1.37h-.83v-3a.5.5,0,0,1,.17-.38.6.6,0,0,1,.41-.16Zm6.68,0V164h-3.64c0,1,0,2-.06,2.83s-.12,1.61-.23,2.31a14,14,0,0,1-.41,1.94,11.63,11.63,0,0,1-.62,1.66Z"/><path class="cls-1" d="M312.8,167.44h1.49a11.62,11.62,0,0,1,1.77.13,5.27,5.27,0,0,1,1.56.47,3,3,0,0,1,1.12.92,2.74,2.74,0,0,1,0,2.95,3.17,3.17,0,0,1-1.12.92,5.27,5.27,0,0,1-1.56.46,11.63,11.63,0,0,1-1.77.14h-3.64v-8.14a2.51,2.51,0,0,0-.2-1.11,1,1,0,0,0-.95-.43h-.17v-.45h2a2.09,2.09,0,0,1,.71.1.92.92,0,0,1,.47.32,1.61,1.61,0,0,1,.24.62,6.22,6.22,0,0,1,.06.95Zm1.16.61a3.23,3.23,0,0,0-.46,0,2.78,2.78,0,0,0-.37,0l-.33.08v4.45l.33.07a3.28,3.28,0,0,0,.83.08H314a3.09,3.09,0,0,0,2.15-.61,2.3,2.3,0,0,0,.66-1.77,2.28,2.28,0,0,0-.66-1.76,3.08,3.08,0,0,0-2.15-.62Z"/><path class="cls-1" d="M328.46,165.29a2.5,2.5,0,0,0-.21-1.11c-.14-.28-.45-.43-.95-.43h-.17v-.45h7.26a2,2,0,0,1,.7.1,1.07,1.07,0,0,1,.43.28.84.84,0,0,1,.22.39,1.74,1.74,0,0,1,.06.45v1.31h-.5a1.69,1.69,0,0,0-.54-1.42,2.39,2.39,0,0,0-1.52-.42h-2.63v3.6h1.48a14.76,14.76,0,0,1,1.77.11,4.83,4.83,0,0,1,1.56.43,2.9,2.9,0,0,1,1.12.89,2.8,2.8,0,0,1,0,3,3,3,0,0,1-1.12.89,5.09,5.09,0,0,1-1.56.43,14.76,14.76,0,0,1-1.77.11h-3.63Zm3.3,2.92a3.39,3.39,0,0,0-.46,0l-.36.05-.33.08v4.3l.33.07a3.2,3.2,0,0,0,.82.08h.09a3.43,3.43,0,0,0,2.15-.54,2.68,2.68,0,0,0,0-3.52,3.43,3.43,0,0,0-2.15-.54Z"/><path class="cls-1" d="M341.33,165.29a2.51,2.51,0,0,0-.2-1.11,1,1,0,0,0-.95-.43H340v-.45h8.85v10.13h-2.15V164h-3.57v1.3a26.71,26.71,0,0,1-.26,4.06,9.59,9.59,0,0,1-.71,2.57,3,3,0,0,1-1.08,1.34,2.5,2.5,0,0,1-1.38.4,4.6,4.6,0,0,1-.56,0,3.45,3.45,0,0,1-.43-.1V173a2.44,2.44,0,0,0,1-.45,2.79,2.79,0,0,0,.83-1.18,9.47,9.47,0,0,0,.57-2.3A27.8,27.8,0,0,0,341.33,165.29Z"/><path class="cls-1" d="M353.3,165.29a2.66,2.66,0,0,0-.2-1.11c-.14-.28-.46-.43-1-.43H352v-.45h2a2.12,2.12,0,0,1,.72.1.9.9,0,0,1,.46.32,1.34,1.34,0,0,1,.24.62,5.05,5.05,0,0,1,.07.95v6.14l4.79-8.13h2v10.13h-2.15v-8.14l-4.8,8.14h-2Z"/><path class="cls-1" d="M372.19,163.3h2.17v4.91l2.69-3.3a8.37,8.37,0,0,1,.57-.62,5.29,5.29,0,0,1,.66-.51,3.05,3.05,0,0,1,.78-.35,3,3,0,0,1,.92-.13h1v.53a6.55,6.55,0,0,0-.94.06,3.18,3.18,0,0,0-.75.17,2.4,2.4,0,0,0-.61.33,3.9,3.9,0,0,0-.56.53l-2.3,2.83,3.33,3.68a6.3,6.3,0,0,0,1.29,1.11,3.26,3.26,0,0,0,1.19.52v.37a3.76,3.76,0,0,1-1.06.15,6.83,6.83,0,0,1-1-.08,3.92,3.92,0,0,1-1-.29,4.42,4.42,0,0,1-1-.61,7,7,0,0,1-1-1l-2.16-2.53v4.38h-2.17v-4.38L370,171.58a6.59,6.59,0,0,1-1,1,4.42,4.42,0,0,1-1,.61,3.92,3.92,0,0,1-1,.29,6.8,6.8,0,0,1-1,.08,3.53,3.53,0,0,1-.62-.05,2.92,2.92,0,0,1-.44-.1v-.37a3.3,3.3,0,0,0,1.18-.52,6.34,6.34,0,0,0,1.3-1.11l3.32-3.68-2.3-2.83a3.9,3.9,0,0,0-.56-.53,2.4,2.4,0,0,0-.61-.33,3.18,3.18,0,0,0-.75-.17,6.55,6.55,0,0,0-.94-.06v-.53h1a3,3,0,0,1,.92.13,3.05,3.05,0,0,1,.78.35,5.29,5.29,0,0,1,.66.51,8.37,8.37,0,0,1,.57.62l2.69,3.3Z"/><path class="cls-1" d="M390.64,163.3a2,2,0,0,1,.7.1,1.15,1.15,0,0,1,.43.28.84.84,0,0,1,.22.39,1.74,1.74,0,0,1,.06.45v1.31h-.5a1.68,1.68,0,0,0-.54-1.41,2.38,2.38,0,0,0-1.53-.43h-2.66v3.83h4.3v.69h-4.3v4.22h2.83a3,3,0,0,0,1.54-.37,2.8,2.8,0,0,0,1.07-1.38l.45.16-.48,1.21a2.11,2.11,0,0,1-.47.78,1.33,1.33,0,0,1-1,.3h-6.12v-8.14a2.66,2.66,0,0,0-.2-1.11,1,1,0,0,0-1-.43h-.17v-.45Z"/><path class="cls-1" d="M402,165.29a2.5,2.5,0,0,0-.21-1.11c-.14-.28-.45-.43-.95-.43h-.16v-.45h2a2.12,2.12,0,0,1,.72.1.9.9,0,0,1,.46.32,1.47,1.47,0,0,1,.25.62,5,5,0,0,1,.08.95v2.92l2.85-3.3a6.76,6.76,0,0,1,.58-.62,3.82,3.82,0,0,1,.67-.51,3.15,3.15,0,0,1,.77-.35,2.94,2.94,0,0,1,.91-.13h1.16v.53a6.44,6.44,0,0,0-1.71.22,2.83,2.83,0,0,0-1.32.87l-2.46,2.83,3.82,3.68a6.62,6.62,0,0,0,.68.6c.24.18.47.35.71.5a4,4,0,0,0,.67.36,2.12,2.12,0,0,0,.57.17v.37a3,3,0,0,1-.51.1,5,5,0,0,1-.7.05,5.82,5.82,0,0,1-.93-.07,4.21,4.21,0,0,1-.95-.28,5,5,0,0,1-1-.56,7.23,7.23,0,0,1-1.12-.93l-2.66-2.58v4.27h-2.15Z"/><path class="cls-1" d="M429.27,166.56a3.92,3.92,0,0,0-1.15-2.14,3.23,3.23,0,0,0-2.21-.74,4.15,4.15,0,0,0-1.42.23,2.74,2.74,0,0,0-1.16.79,3.81,3.81,0,0,0-.77,1.49,8,8,0,0,0-.28,2.32,7.32,7.32,0,0,0,.19,1.7,4.45,4.45,0,0,0,.64,1.45,3.21,3.21,0,0,0,1.13,1,3.3,3.3,0,0,0,1.67.38,4.23,4.23,0,0,0,2.12-.56,4.18,4.18,0,0,0,1.57-1.63l.58.41a5,5,0,0,1-1.9,1.87,6.06,6.06,0,0,1-2.86.6,6.29,6.29,0,0,1-2.33-.4,4.89,4.89,0,0,1-1.71-1.1,4.79,4.79,0,0,1-1.05-1.66,5.87,5.87,0,0,1,.05-4.23,5.3,5.3,0,0,1,2.86-2.92,5.4,5.4,0,0,1,2.18-.43,6.94,6.94,0,0,1,2.5.37,3.79,3.79,0,0,1,1.41.87,1.79,1.79,0,0,1,.39,1c0,.42,0,.85,0,1.3Z"/><path class="cls-1" d="M433.8,165.29a2.5,2.5,0,0,0-.21-1.11c-.14-.28-.45-.43-.95-.43h-.17v-.45h9.92v10.13h-2.15V164H436v9.44H433.8Z"/><path class="cls-1" d="M445.88,168.36a5.71,5.71,0,0,1,.39-2.12,5,5,0,0,1,1.11-1.7,5.17,5.17,0,0,1,1.72-1.14,6.3,6.3,0,0,1,4.47,0,5.27,5.27,0,0,1,1.72,1.14,5.11,5.11,0,0,1,1.09,1.7,6,6,0,0,1,0,4.24,5.11,5.11,0,0,1-1.09,1.7,5.27,5.27,0,0,1-1.72,1.14,6.3,6.3,0,0,1-4.47,0,5.17,5.17,0,0,1-1.72-1.14,5,5,0,0,1-1.11-1.7A5.71,5.71,0,0,1,445.88,168.36Zm8.61,0a6.06,6.06,0,0,0-.83-3.46,2.83,2.83,0,0,0-4.65,0,7.71,7.71,0,0,0,0,6.92,2.83,2.83,0,0,0,4.65,0A6.06,6.06,0,0,0,454.49,168.36Z"/><path class="cls-1" d="M460.51,165.29a2.5,2.5,0,0,0-.21-1.11c-.14-.28-.45-.43-.95-.43h-.16v-.45h2a2.12,2.12,0,0,1,.72.1.94.94,0,0,1,.46.32,1.47,1.47,0,0,1,.25.62,5.05,5.05,0,0,1,.07.95v2.92l2.86-3.3a8.37,8.37,0,0,1,.57-.62,4.74,4.74,0,0,1,.67-.51,3.21,3.21,0,0,1,.78-.35,2.94,2.94,0,0,1,.91-.13h1.16v.53a6.44,6.44,0,0,0-1.71.22,2.83,2.83,0,0,0-1.32.87l-2.46,2.83,3.82,3.68a6.49,6.49,0,0,0,.67.6c.25.18.48.35.71.5a5,5,0,0,0,.67.36,2.35,2.35,0,0,0,.57.17v.37a2.89,2.89,0,0,1-.5.1,5,5,0,0,1-.7.05,5.82,5.82,0,0,1-.93-.07,4.14,4.14,0,0,1-1-.28,5.21,5.21,0,0,1-1-.56,7.76,7.76,0,0,1-1.13-.93l-2.66-2.58v4.27h-2.15Z"/><path class="cls-1" d="M471.6,168.36a5.71,5.71,0,0,1,.39-2.12,5,5,0,0,1,1.11-1.7,5.27,5.27,0,0,1,1.72-1.14,5.88,5.88,0,0,1,2.24-.41,6,6,0,0,1,2.24.41,5.34,5.34,0,0,1,1.71,1.14,5.14,5.14,0,0,1,1.1,1.7,6.1,6.1,0,0,1,0,4.24,5.14,5.14,0,0,1-1.1,1.7,5.34,5.34,0,0,1-1.71,1.14,6,6,0,0,1-2.24.41,5.88,5.88,0,0,1-2.24-.41,5.27,5.27,0,0,1-1.72-1.14,5,5,0,0,1-1.11-1.7A5.71,5.71,0,0,1,471.6,168.36Zm8.61,0a6.15,6.15,0,0,0-.82-3.46,2.83,2.83,0,0,0-4.66,0,7.71,7.71,0,0,0,0,6.92,2.83,2.83,0,0,0,4.66,0A6.15,6.15,0,0,0,480.21,168.36Z"/><path class="cls-1" d="M486.23,165.29a2.5,2.5,0,0,0-.21-1.11c-.14-.28-.45-.43-.95-.43h-.17v-.45h2a2.16,2.16,0,0,1,.72.1.94.94,0,0,1,.46.32,1.34,1.34,0,0,1,.24.62,6.07,6.07,0,0,1,.07.95v6.14l4.79-8.13h2v10.13H493v-8.14l-4.79,8.14h-2Zm4.44-3.68a2.49,2.49,0,0,0,1.16-.24,2.3,2.3,0,0,0,.71-.53l.46.32a2.47,2.47,0,0,1-.91,1,2.51,2.51,0,0,1-1.42.4,2.46,2.46,0,0,1-1.41-.4,2.57,2.57,0,0,1-.92-1l.47-.32a2.3,2.3,0,0,0,.71.53A2.48,2.48,0,0,0,490.67,161.61Z"/><path class="cls-1" d="M508,166.56a4,4,0,0,0-1.15-2.14,3.23,3.23,0,0,0-2.21-.74,4.11,4.11,0,0,0-1.42.23,2.74,2.74,0,0,0-1.16.79,3.81,3.81,0,0,0-.77,1.49,8,8,0,0,0-.28,2.32,7.32,7.32,0,0,0,.19,1.7,4.45,4.45,0,0,0,.64,1.45,3.26,3.26,0,0,0,1.12,1,3.37,3.37,0,0,0,1.68.38,4.23,4.23,0,0,0,2.12-.56,4.18,4.18,0,0,0,1.57-1.63l.58.41a5,5,0,0,1-1.9,1.87,6.06,6.06,0,0,1-2.86.6,6.25,6.25,0,0,1-2.33-.4,4.8,4.8,0,0,1-1.71-1.1,5,5,0,0,1-1.06-1.66,6,6,0,0,1,.05-4.23,5.49,5.49,0,0,1,1.15-1.75,5.3,5.3,0,0,1,1.72-1.17,5.4,5.4,0,0,1,2.18-.43,6.94,6.94,0,0,1,2.5.37,3.79,3.79,0,0,1,1.41.87,1.78,1.78,0,0,1,.38,1c0,.42.05.85.05,1.3Z"/><path class="cls-1" d="M520.34,163.3V164h-3.45v9.44h-2.15V164h-1.17a2.17,2.17,0,0,0-1.39.4,1.75,1.75,0,0,0-.51,1.44h-.5v-1.31a1.74,1.74,0,0,1,.06-.45.92.92,0,0,1,.21-.39,1.23,1.23,0,0,1,.43-.28,2,2,0,0,1,.7-.1Z"/><path class="cls-1" d="M523.63,165.29a2.66,2.66,0,0,0-.2-1.11,1,1,0,0,0-.95-.43h-.17v-.45h4.46c.52,0,1.07,0,1.64.07a6,6,0,0,1,1.58.35,3.06,3.06,0,0,1,1.19.82,2.13,2.13,0,0,1,.47,1.44,1.74,1.74,0,0,1-.14.66,2,2,0,0,1-.43.64,2.69,2.69,0,0,1-.72.53,3.86,3.86,0,0,1-1,.38,4.66,4.66,0,0,1,1.35.3,2.64,2.64,0,0,1,.86.54,1.82,1.82,0,0,1,.45.73,2.77,2.77,0,0,1,.14.86,2.27,2.27,0,0,1-.43,1.42,2.8,2.8,0,0,1-1.13.86,5.24,5.24,0,0,1-1.57.42,14.68,14.68,0,0,1-1.75.11h-3.64Zm3.14-1.38h-.38l-.31.05-.3.05v3.86H527a2.85,2.85,0,0,0,1.66-.44,1.72,1.72,0,0,0,.66-1.54,1.88,1.88,0,0,0-.23-1,1.79,1.79,0,0,0-.58-.61,2.1,2.1,0,0,0-.81-.33A4.32,4.32,0,0,0,526.77,163.91Zm.25,8.9a3.36,3.36,0,0,0,2.09-.55,1.86,1.86,0,0,0,.72-1.57c0-1.41-.93-2.11-2.81-2.11h-1.24v4.08l.33.07a3.28,3.28,0,0,0,.83.08Z"/><path class="cls-1" d="M535.93,165.29a2.5,2.5,0,0,0-.21-1.11c-.13-.28-.45-.43-1-.43h-.16v-.45h2a2.12,2.12,0,0,1,.72.1.9.9,0,0,1,.46.32,1.34,1.34,0,0,1,.24.62,5.05,5.05,0,0,1,.07.95v6.14l4.79-8.13h2v10.13h-2.15v-8.14l-4.8,8.14h-2Z"/><path class="cls-1" d="M557.32,173.73a4.94,4.94,0,0,1-1.92-.37,4.77,4.77,0,0,1-1.56-1.07,5.22,5.22,0,0,1-1.07-1.65,5.81,5.81,0,0,1-.41-2.13h-.91v4.92H549.3v-8.14a2.66,2.66,0,0,0-.2-1.11c-.14-.28-.46-.43-1-.43H548v-.45h2a2.12,2.12,0,0,1,.72.1.86.86,0,0,1,.46.32,1.47,1.47,0,0,1,.25.62,6.22,6.22,0,0,1,.06.95v2.53h.93a5.78,5.78,0,0,1,.51-2,5.05,5.05,0,0,1,1.06-1.52,4.54,4.54,0,0,1,1.52-1,5.13,5.13,0,0,1,3.8,0,4.69,4.69,0,0,1,1.57,1.1,5.07,5.07,0,0,1,1,1.69,6.5,6.5,0,0,1,0,4.38,5.07,5.07,0,0,1-1,1.69,4.69,4.69,0,0,1-1.57,1.1A4.92,4.92,0,0,1,557.32,173.73Zm2.66-5.37a8.77,8.77,0,0,0-.21-2,4.85,4.85,0,0,0-.56-1.47,2.55,2.55,0,0,0-.84-.88,2.08,2.08,0,0,0-1-.29,2,2,0,0,0-1.05.29,2.38,2.38,0,0,0-.84.88,5.13,5.13,0,0,0-.56,1.47,10.5,10.5,0,0,0,0,4.08,5.24,5.24,0,0,0,.56,1.47,2.38,2.38,0,0,0,.84.88,2,2,0,0,0,1.05.29,2.08,2.08,0,0,0,1-.29,2.55,2.55,0,0,0,.84-.88,5,5,0,0,0,.56-1.47A8.77,8.77,0,0,0,560,168.36Z"/><path class="cls-2" d="M124,48.45C109.35,32.31,81.74,50.4,78.43,67.64c9.28-11.4,21.06-19.17,30-19.58,6.85-.32,11.24,5,4.81,12.2,11.07-9.86,43.84-11.57,62.85-11.69C164.18,45.53,132.11,46.93,124,48.45Z"/><path class="cls-2" d="M74.67,110.44c-4.43,2.2-9.58,4.56-15.57,7.12,0,0,28.36-29,19.67-49.46C65.86,37.8,17.39,30.12,16.32,0c0,0-9.07,25.07,12.67,40.44C49.86,55.2,64.89,61.1,69.81,75.71c0,0-8.94-12.14-22.41-19C32.13,48.93,19.12,43.25,14.87,29c0,0-4.22,22.62,21.25,33.26C60.71,72.51,66.59,79.09,67.33,83.76c0,0-3.75-6.23-18.82-11.51C32.3,66.55,20.86,63.33,16.83,52.6c0,0-1.69,18.95,18.62,24S64.66,87.2,66.13,92.51c2.25,8.15-10.93,26.57-24.55,32.47S0,135,0,135l12.44,6.87,28.75-10.93-24.53,13,1.9,12.55,28.61-24.38L20,159.87l11.52,1.19L51.17,131l-16.91,33.9,6.47,12.53s12.5-48.94,23.76-56.64c5.79-4,19.22-9.9,24.32-12.89.72-.43,1.44-.84,2.17-1.26C127.37,86.05,109.26,68,124.74,56.22c-23.63,7.71-2.1,13.8-26.53,37.67A92,92,0,0,1,74.67,110.44Z"/><path class="cls-2" d="M111.47,52.7A1.91,1.91,0,0,0,109,50.54,1.87,1.87,0,0,0,107.7,52a1.92,1.92,0,0,0,3.77.69Z"/><path class="cls-1" d="M195.35,139.39a39.58,39.58,0,0,1-28.85,11.13c-21.16,0-39-13-39-39.05s17.89-37.42,39.05-37.42a41.58,41.58,0,0,1,24.14,7.11l-2.82,6.58a31.76,31.76,0,0,0-24.58-12c-19.52,0-26,17.89-26,35.78,0,26,17.9,37.43,32.54,37.43a26,26,0,0,0,22.78-14.65Z"/><path class="cls-1" d="M257.76,113.1v35.8L248,150.52V113.1c0-11.73-3.26-19.52-14.65-19.52s-17.89,9.76-17.89,19.52v35.8l-9.76,1.62V75.69l9.76-1.64v30A20.72,20.72,0,0,1,235,92C248,92,257.76,98.47,257.76,113.1Z"/><path class="cls-1" d="M272.19,83.82a4.88,4.88,0,1,1,4.89,4.89A4.88,4.88,0,0,1,272.19,83.82Zm0,11.39L282,93.59V148.9l-9.76,1.63Z"/><path class="cls-1" d="M306,88.69V148.9l-9.76,1.62V88.69c0-11.38-4.88-13-8.14-13l-1.63-1.64C296.22,74.05,306,77.31,306,88.69Z"/><path class="cls-1" d="M331.05,88.69V148.9l-9.76,1.62V88.69c0-11.38-4.88-13-8.14-13l-1.62-1.64C321.29,74.05,331.05,77.31,331.05,88.69Z"/><path class="cls-1" d="M390.21,111.47l-9.77,1.63c0-8.13-1.62-19.52-9.76-19.52S356,103.34,356,113.1v35.8l-9.76,1.62V95.21L356,93.58v9.64A17.19,17.19,0,0,1,372.3,92C383.69,92,390.21,100.08,390.21,111.47Z"/><path class="cls-1" d="M456.78,92v57L447,150.52V144.2a30.57,30.57,0,0,1-19.52,6.32c-16.27,0-29.29-9.76-29.29-29.28S411.22,92,427.49,92A30.67,30.67,0,0,1,447,98.26V93.58Zm-9.77,48V104.13a33.41,33.41,0,0,0-22.78-10.55c-13,0-16.26,14.64-16.26,27.66,0,19.52,13,27.66,22.78,27.66A20.87,20.87,0,0,0,447,139.94Z"/><path class="cls-1" d="M500.25,147.26a12.45,12.45,0,0,1-8.13,3.26c-11.39,0-17.9-6.51-17.9-21.15V95.21h-6.51V93.58h6.51V83.82L484,82.19V93.58h13v1.63H484V131c0,11.39,1.62,17.9,8.13,17.9,3.25,0,4.87-4.88,4.87-4.88Z"/><path class="cls-1" d="M553,139.14l1.63,3.25c-4.88,4.88-14.38,8.13-21.15,8.13-15.34,0-27.77-8.67-29.15-26-.08-1.06-.13-2.14-.13-3.26,0-19.52,13-29.29,29.29-29.29.86,0,1.73,0,2.57.1.32,0,.62.06.93.08.53.05,1.06.09,1.59.17.37,0,.74.12,1.11.18s.88.14,1.32.24.79.18,1.18.28.76.18,1.16.3.8.25,1.2.39.71.23,1.06.36l1.17.49,1,.43c.38.18.76.39,1.13.58s.62.33.92.51.72.43,1.06.65a5.29,5.29,0,0,1,.5.32h0a25.93,25.93,0,0,1,10.86,17.69H553c-13.69,0-25.5,6-39,6.47v0c0,19.52,13,27.66,22.78,27.66A21.37,21.37,0,0,0,553,139.14Zm-39-19.57c13.24-.47,24.83-6.19,38.14-6.44a27.62,27.62,0,0,0-4-9.59,27.21,27.21,0,0,0-1.66-2.18l-.34-.36c-.5-.55-1-1.08-1.54-1.56l-.52-.47a22.78,22.78,0,0,0-1.91-1.49l-.07-.06c-.68-.46-1.38-.88-2.1-1.27l-.56-.28c-.57-.29-1.15-.55-1.74-.79l-.46-.19c-.71-.26-1.42-.49-2.15-.68l-.44-.1c-.59-.13-1.16-.24-1.74-.32l-.59-.08a20.16,20.16,0,0,0-2.06-.13C517.8,93.58,514.3,107,514,119.57Z"/></g></g></svg>